<svg xmlns="http://www.w3.org/2000/svg" width="50" height="50" viewBox="0 0 50 50">
  <defs>
    <style>
      .cls-1 {
        fill: #00d46d;
      }
    </style>
  </defs>
  <path id="Icon_awesome-check-circle" data-name="Icon awesome-check-circle" class="cls-1" d="M50.562,25.563a25,25,0,1,1-25-25A25,25,0,0,1,50.562,25.563ZM22.671,38.8,41.219,20.251a1.613,1.613,0,0,0,0-2.281L38.938,15.69a1.613,1.613,0,0,0-2.281,0L21.53,30.816l-7.062-7.062a1.613,1.613,0,0,0-2.281,0L9.906,26.035a1.613,1.613,0,0,0,0,2.281L20.39,38.8a1.613,1.613,0,0,0,2.281,0Z" transform="translate(-0.563 -0.563)"/>
</svg>
