<svg xmlns="http://www.w3.org/2000/svg" xmlns:xlink="http://www.w3.org/1999/xlink" width="127.376" height="127.376" viewBox="0 0 127.376 127.376"><defs><style>.a{fill:#e7edf2;}.a,.d{stroke:#c8d8e6;stroke-width:3px;}.b{clip-path:url(#a);}.c{fill:#96a7b7;}.d,.f{fill:none;}.e{stroke:none;}</style><clipPath id="a"><ellipse class="a" cx="61.964" cy="61.094" rx="61.964" ry="61.094"/></clipPath></defs><g transform="translate(0 0)"><g class="a"><circle class="e" cx="63.688" cy="63.688" r="63.688"/><circle class="f" cx="63.688" cy="63.688" r="62.188"/></g><g class="b" transform="translate(1.562 3.007)"><path class="c" d="M113.685,117.439a25,25,0,1,0-27.653,0,.007.007,0,0,0,0,0,0,0,0,0,1,0,0,47.743,47.743,0,0,0-32.691,34.1l0,0c.658.787,1.341,1.556,2.039,2.31.169.184.346.36.519.539.537.566,1.081,1.124,1.639,1.669.231.225.467.442.7.663.517.488,1.039.969,1.573,1.438.265.231.533.461.8.688q.784.666,1.591,1.306c.283.225.569.446.854.667q.819.626,1.66,1.219c.29.2.575.413.869.614.592.4,1.193.793,1.8,1.178.273.171.539.349.814.519.7.428,1.412.837,2.131,1.237.19.105.375.219.567.322q1.393.756,2.831,1.444l.071.031q1.372.651,2.783,1.233c.292.122.589.229.883.345.679.269,1.358.533,2.05.777.367.13.737.248,1.106.372.629.211,1.262.415,1.9.6.4.12.81.231,1.218.343q.925.254,1.864.481.634.152,1.275.291c.627.136,1.256.26,1.889.376.429.079.856.159,1.289.227.654.105,1.312.194,1.972.279.417.054.831.114,1.25.157.729.078,1.464.134,2.2.186.356.025.708.062,1.064.081,1.1.062,2.2.1,3.312.1s2.214-.035,3.312-.093c.356-.019.71-.056,1.064-.081.737-.052,1.473-.107,2.2-.186.419-.045.833-.1,1.25-.157.66-.085,1.318-.174,1.973-.279.431-.07.86-.149,1.289-.227.633-.116,1.264-.24,1.889-.376q.641-.139,1.275-.291.937-.226,1.864-.481c.406-.112.814-.223,1.218-.343.639-.19,1.271-.395,1.9-.6.369-.124.741-.242,1.106-.372.689-.246,1.371-.508,2.05-.777.294-.116.592-.225.883-.345.935-.388,1.86-.8,2.77-1.229l.083-.037q1.437-.685,2.831-1.444c.192-.1.377-.217.567-.322.719-.4,1.431-.81,2.131-1.238.275-.167.544-.345.814-.519.606-.384,1.208-.775,1.8-1.178.292-.2.579-.407.869-.614q.84-.6,1.66-1.219c.287-.219.571-.442.854-.667q.806-.638,1.591-1.306c.269-.227.537-.457.8-.688.533-.469,1.056-.95,1.573-1.438.233-.221.471-.44.7-.663q.837-.818,1.639-1.669c.171-.182.348-.357.519-.539.7-.754,1.381-1.523,2.039-2.31l0,0A47.736,47.736,0,0,0,113.685,117.439Z" transform="translate(-37.895 -45.237)"/></g></g><g class="d" transform="translate(0 0)"><circle class="e" cx="63.688" cy="63.688" r="63.688"/><circle class="f" cx="63.688" cy="63.688" r="62.188"/></g></svg>