<svg xmlns="http://www.w3.org/2000/svg" width="18.932" height="18.932" viewBox="0 0 18.932 18.932">
  <path id="Shape" d="M18.866,16.111a9.535,9.535,0,0,0-6.73-6.831,4.988,4.988,0,0,0,2.451-4.272A5.072,5.072,0,0,0,9.466,0,5.072,5.072,0,0,0,4.345,5.009,4.988,4.988,0,0,0,6.8,9.28a9.535,9.535,0,0,0-6.73,6.831A2.187,2.187,0,0,0,.5,18.025a2.421,2.421,0,0,0,1.9.907H16.533a2.42,2.42,0,0,0,1.9-.907A2.182,2.182,0,0,0,18.866,16.111Zm-13.4-11.1a4,4,0,0,1,7.993,0,4,4,0,0,1-7.993,0ZM17.551,17.347a1.314,1.314,0,0,1-1.018.486H2.4a1.314,1.314,0,0,1-1.018-.486,1.1,1.1,0,0,1-.223-.973,8.5,8.5,0,0,1,8.309-6.358,8.5,8.5,0,0,1,8.308,6.358A1.1,1.1,0,0,1,17.551,17.347Z" fill="#6b99a5"/>
</svg>
