<svg xmlns="http://www.w3.org/2000/svg" width="36.631" height="36.631" viewBox="0 0 36.631 36.631"><defs><style>.a{fill:#e7edf2;opacity:0.899;}.b{fill:#96a7b7;}.c,.d{stroke:none;}.d{fill:#c8d8e6;}</style></defs><g transform="translate(-568.316 -453.285)"><g class="a" transform="translate(568.316 453.285)"><path class="c" d="M 18.31533241271973 35.13066101074219 C 13.82379245758057 35.13066101074219 9.601092338562012 33.38156127929688 6.425102233886719 30.20556259155273 C 3.249102354049683 27.02957153320312 1.500002384185791 22.8068733215332 1.500002384185791 18.31533241271973 C 1.500002384185791 13.82379245758057 3.249102354049683 9.601092338562012 6.425102233886719 6.425102233886719 C 9.601092338562012 3.249102354049683 13.82379245758057 1.500002384185791 18.31533241271973 1.500002384185791 C 22.8068733215332 1.500002384185791 27.02957153320312 3.249102354049683 30.20556259155273 6.425102233886719 C 33.38156127929688 9.601092338562012 35.13066101074219 13.82379245758057 35.13066101074219 18.31533241271973 C 35.13066101074219 22.8068733215332 33.38156127929688 27.02957153320312 30.20556259155273 30.20556259155273 C 27.02957153320312 33.38156127929688 22.8068733215332 35.13066101074219 18.31533241271973 35.13066101074219 Z"/><path class="d" d="M 18.31533241271973 3.000003814697266 C 14.22446250915527 3.000003814697266 10.37844276428223 4.593070983886719 7.485761642456055 7.485761642456055 C 4.593070983886719 10.37844276428223 3.000003814697266 14.22446250915527 3.000003814697266 18.31533241271973 C 3.000003814697266 22.40620231628418 4.593070983886719 26.25222206115723 7.485761642456055 29.14490127563477 C 10.37844276428223 32.03759384155273 14.22446250915527 33.63066101074219 18.31533241271973 33.63066101074219 C 22.40620231628418 33.63066101074219 26.25222206115723 32.03759384155273 29.14490127563477 29.14490127563477 C 32.03759384155273 26.25222206115723 33.63066101074219 22.40620231628418 33.63066101074219 18.31533241271973 C 33.63066101074219 14.22446250915527 32.03759384155273 10.37844276428223 29.14490127563477 7.485761642456055 C 26.25222206115723 4.593070983886719 22.40620231628418 3.000003814697266 18.31533241271973 3.000003814697266 M 18.31533241271973 3.814697265625e-06 C 28.43061256408691 3.814697265625e-06 36.63066101074219 8.200052261352539 36.63066101074219 18.31533241271973 C 36.63066101074219 28.43061256408691 28.43061256408691 36.63066101074219 18.31533241271973 36.63066101074219 C 8.200052261352539 36.63066101074219 3.814697265625e-06 28.43061256408691 3.814697265625e-06 18.31533241271973 C 3.814697265625e-06 8.200052261352539 8.200052261352539 3.814697265625e-06 18.31533241271973 3.814697265625e-06 Z"/></g><g transform="translate(577.98 463.704)"><path class="b" d="M18.815,16.007A2.807,2.807,0,1,1,16.007,13.2,2.807,2.807,0,0,1,18.815,16.007Z" transform="translate(-7.234 -7.234)"/><path class="b" d="M9.141,3,7.536,4.755H4.755A1.76,1.76,0,0,0,3,6.509V17.037a1.76,1.76,0,0,0,1.755,1.755H18.792a1.76,1.76,0,0,0,1.755-1.755V6.509a1.76,1.76,0,0,0-1.755-1.755H16.011L14.405,3Zm2.632,13.16a4.387,4.387,0,1,1,4.387-4.387A4.388,4.388,0,0,1,11.773,16.16Z" transform="translate(-3 -3)"/></g></g></svg>