<svg xmlns="http://www.w3.org/2000/svg" width="16.929" height="23.316" viewBox="0 0 16.929 23.316">
  <path id="Unión_2" data-name="Unión 2" d="M-861.994,11772.115a1.684,1.684,0,0,1-1.681-1.684v-10.394a1.682,1.682,0,0,1,1.681-1.682h1.681v-4.455a5.109,5.109,0,0,1,5.1-5.1,5.107,5.107,0,0,1,5.1,5.1v4.455h1.681a1.682,1.682,0,0,1,1.681,1.682v10.394a1.684,1.684,0,0,1-1.681,1.684Zm-.561-12.077v10.394a.561.561,0,0,0,.561.561h13.567a.561.561,0,0,0,.561-.561v-10.394a.561.561,0,0,0-.561-.562h-13.567A.561.561,0,0,0-862.555,11760.038Zm12.447-1.682c-.417-.006-.665-.006-.739,0Zm-9.085-4.455v4.455h7.965v-4.455a3.986,3.986,0,0,0-3.983-3.982A3.988,3.988,0,0,0-859.193,11753.9Zm2.39,13.578v-2.089a2.321,2.321,0,0,1-.721-1.678,2.318,2.318,0,0,1,2.313-2.316,2.318,2.318,0,0,1,2.313,2.316,2.321,2.321,0,0,1-.721,1.678v2.089a1.6,1.6,0,0,1-1.592,1.593A1.6,1.6,0,0,1-856.8,11767.479Zm.4-3.767a1.173,1.173,0,0,0,.375.865,1.107,1.107,0,0,1,.349.8v2.1a.471.471,0,0,0,.47.473.474.474,0,0,0,.473-.473v-2.1a1.1,1.1,0,0,1,.346-.8,1.173,1.173,0,0,0,.375-.865,1.194,1.194,0,0,0-1.194-1.193A1.194,1.194,0,0,0-856.4,11763.713Z" transform="translate(863.675 -11748.799)" fill="#6b99a5"/>
</svg>
