<svg xmlns="http://www.w3.org/2000/svg" width="10.915" height="10.915" viewBox="0 0 10.915 10.915">
  <path id="Trazado_9085" data-name="Trazado 9085" d="M9.766,8.758,7.5,6.491,6.465,5.457l.7-.7L9.538,2.384c.385-.385.779-.762,1.155-1.155l.017-.017A.72.72,0,0,0,10.71.2.725.725,0,0,0,9.7.2l-.944.944L6.492,3.416,5.458,4.45l-.7-.7L2.384,1.376C2,.992,1.622.6,1.229.222L1.213.2A.721.721,0,0,0,.205.2a.725.725,0,0,0,0,1.007l.944.944L3.416,4.423,4.45,5.457l-.7.7L1.377,8.531C.992,8.915.6,9.292.222,9.685L.205,9.7a.721.721,0,0,0,0,1.007.725.725,0,0,0,1.007,0l.944-.944L4.423,7.5,5.458,6.464l.7.7L8.531,9.538c.385.385.762.779,1.155,1.155l.017.017A.712.712,0,0,0,10.71,9.7l-.944-.944" transform="translate(0 0)"/>
</svg>
