<svg xmlns="http://www.w3.org/2000/svg" width="16.325" height="16.326" viewBox="0 0 16.325 16.326">
  <path id="Unión_8" data-name="Unión 8" d="M-12129.728-816.273a8.172,8.172,0,0,1,8.164-8.161,8.172,8.172,0,0,1,8.161,8.161,8.172,8.172,0,0,1-8.161,8.164A8.173,8.173,0,0,1-12129.728-816.273Zm1.2,0a6.975,6.975,0,0,0,6.965,6.965,6.973,6.973,0,0,0,6.962-6.965,6.97,6.97,0,0,0-6.962-6.962A6.972,6.972,0,0,0-12128.528-816.273Zm6.538,4.307-3.479-3.482a.6.6,0,0,1,0-.849.6.6,0,0,1,.846,0l2.46,2.46v-6.317a.6.6,0,0,1,.6-.6.6.6,0,0,1,.6.6v6.316l2.457-2.459a.6.6,0,0,1,.849,0,.6.6,0,0,1,0,.849l-3.482,3.482a.6.6,0,0,1-.423.177A.617.617,0,0,1-12121.99-811.966Z" transform="translate(12129.728 824.435)"/>
</svg>
