<svg xmlns="http://www.w3.org/2000/svg" width="100%" height="100%" viewBox="0 0 199.057 103.588">
  <g id="Grupo_10535" data-name="Grupo 10535" transform="translate(-70.97 -97.842)">
    <path id="Trazado_4268" data-name="Trazado 4268" d="M237.713,65a8.344,8.344,0,0,1,0,16.687H190.035a8.344,8.344,0,1,1,0,16.687h26.223a8.344,8.344,0,1,1,0,16.687H204.131c-5.81,0-10.52,3.736-10.52,8.344q0,4.608,7.152,8.344a8.344,8.344,0,0,1,0,16.687H101.83a8.344,8.344,0,0,1,0-16.687H55.344a8.344,8.344,0,0,1,0-16.687h47.678a8.344,8.344,0,1,0,0-16.687h-29.8a8.344,8.344,0,1,1,0-16.687H120.9A8.344,8.344,0,0,1,120.9,65Zm0,33.375a8.344,8.344,0,1,1-8.344,8.344A8.344,8.344,0,0,1,237.713,98.375Z" transform="translate(23.97 33.15)" fill="#dbfaff" fill-rule="evenodd"/>
    <path id="Trazado_4269" data-name="Trazado 4269" d="M126.931,145.861A39.93,39.93,0,1,0,87,105.93,39.93,39.93,0,0,0,126.931,145.861Z" transform="translate(31.648 33.342)" fill="#dbfafe" stroke="#1cadc6" stroke-width="3"/>
    <path id="Trazado_4270" data-name="Trazado 4270" d="M119.188,135.57a36.581,36.581,0,0,0,6.4.6,31.624,31.624,0,1,0-23.62-10.613" transform="translate(32.992 34.686)" fill="#fff" fill-rule="evenodd"/>
    <path id="Trazado_4271" data-name="Trazado 4271" d="M119.188,135.57a36.581,36.581,0,0,0,6.4.6,31.624,31.624,0,1,0-23.62-10.613" transform="translate(32.992 34.686)" fill="none" stroke="#1cadc6" stroke-linecap="round" stroke-width="3"/>
    <path id="Trazado_4272" data-name="Trazado 4272" d="M103.8,120.075a31.577,31.577,0,0,0,8.587,4.973" transform="translate(34.872 43.722)" fill="none" stroke="#acdce5" stroke-linecap="round" stroke-width="2.5"/>
    <path id="Trazado_4273" data-name="Trazado 4273" d="M148,126l7.152,7.152" transform="translate(43.357 44.859)" fill="none" stroke="#1cadc6" stroke-width="2.5"/>
    <path id="Trazado_4274" data-name="Trazado 4274" d="M153.3,131.3a5.778,5.778,0,0,0,0,8.17l13.214,13.214a5.777,5.777,0,1,0,8.17-8.17L161.472,131.3A5.778,5.778,0,0,0,153.3,131.3Z" transform="translate(44.051 45.552)" fill="#e7faf1" stroke="#1cadc6" stroke-width="3" fill-rule="evenodd"/>
    <path id="Trazado_4275" data-name="Trazado 4275" d="M158,133l13.112,13.112" transform="translate(45.277 46.203)" fill="none" stroke="#fff" stroke-linecap="round" stroke-width="2.5"/>
    <path id="Trazado_4276" data-name="Trazado 4276" d="M117.1,90.092a25.049,25.049,0,0,0,32.81,23.8,27.014,27.014,0,1,1-29.18-36.79A24.928,24.928,0,0,0,117.1,90.092Z" transform="translate(33.729 35.473)" fill="#dbfaff" fill-rule="evenodd"/>
    <path id="Trazado_4277" data-name="Trazado 4277" d="M124.647,81a22.76,22.76,0,0,0-4.435.434m-4.332,1.325A22.654,22.654,0,0,0,102,103.647" transform="translate(34.528 36.221)" fill="none" stroke="#acdce5" stroke-linecap="round" stroke-width="2.5"/>
    <path id="Trazado_4278" data-name="Trazado 4278" d="M176.259,101.27h-9.745M183.8,92h0Zm8.344,0h0Z" transform="translate(46.299 38.333)" fill="none" stroke="#acdce5" stroke-linecap="round" stroke-linejoin="round" stroke-width="2.5"/>
    <path id="Trazado_4279" data-name="Trazado 4279" d="M90.3,123.462H80.553M84.725,113h0ZM57.31,113h0Z" transform="translate(24.983 42.364)" fill="none" stroke="#acdce5" stroke-linecap="round" stroke-linejoin="round" stroke-width="2.5"/>
  </g>
</svg>
