<svg xmlns="http://www.w3.org/2000/svg" width="49" height="49" viewBox="0 0 49 49">
  <g id="Grupo_14670" data-name="Grupo 14670" style="mix-blend-mode: multiply;isolation: isolate">
    <rect id="Rectángulo_6655" data-name="Rectángulo 6655" width="49" height="49" rx="8" fill="#b7f0df" opacity="0.5"/>
    <path id="Trazado_9131" data-name="Trazado 9131" d="M10.55,14.215l2.443,2.443,5.5-5.5M8.515,4.222a4.681,4.681,0,0,0,2.664-1.1,4.681,4.681,0,0,1,6.072,0,4.681,4.681,0,0,0,2.664,1.1,4.681,4.681,0,0,1,4.294,4.294,4.681,4.681,0,0,0,1.1,2.664,4.681,4.681,0,0,1,0,6.072,4.681,4.681,0,0,0-1.1,2.664,4.681,4.681,0,0,1-4.294,4.294,4.681,4.681,0,0,0-2.664,1.1,4.681,4.681,0,0,1-6.072,0,4.681,4.681,0,0,0-2.664-1.1,4.681,4.681,0,0,1-4.294-4.294,4.681,4.681,0,0,0-1.1-2.664,4.681,4.681,0,0,1,0-6.072,4.681,4.681,0,0,0,1.1-2.664A4.681,4.681,0,0,1,8.515,4.222Z" transform="translate(10.215 10.355)" fill="none" stroke="#66ada5" stroke-linecap="round" stroke-linejoin="round" stroke-width="3"/>
  </g>
</svg>
