<svg id="Grupo_14667" data-name="Grupo 14667" xmlns="http://www.w3.org/2000/svg" width="49" height="49" viewBox="0 0 49 49">
  <rect id="Rectángulo_6655" data-name="Rectángulo 6655" width="49" height="49" rx="8" fill="#f7dbdb" opacity="0.5"/>
  <g id="Grupo_14666" data-name="Grupo 14666" transform="translate(12.215 12.355)">
    <path id="Trazado_9131" data-name="Trazado 9131" d="M8.515,4.222a4.681,4.681,0,0,0,2.664-1.1,4.681,4.681,0,0,1,6.072,0,4.681,4.681,0,0,0,2.664,1.1,4.681,4.681,0,0,1,4.294,4.294,4.681,4.681,0,0,0,1.1,2.664,4.681,4.681,0,0,1,0,6.072,4.681,4.681,0,0,0-1.1,2.664,4.681,4.681,0,0,1-4.294,4.294,4.681,4.681,0,0,0-2.664,1.1,4.681,4.681,0,0,1-6.072,0,4.681,4.681,0,0,0-2.664-1.1,4.681,4.681,0,0,1-4.294-4.294,4.681,4.681,0,0,0-1.1-2.664,4.681,4.681,0,0,1,0-6.072,4.681,4.681,0,0,0,1.1-2.664A4.681,4.681,0,0,1,8.515,4.222Z" transform="translate(-2 -2)" fill="none" stroke="#e66a6a" stroke-linecap="round" stroke-linejoin="round" stroke-width="3"/>
    <path id="Trazado_9132" data-name="Trazado 9132" d="M13.258,7,7,13.258M7,7l6.258,6.258" transform="translate(1.656 2.516)" fill="none" stroke="#e66a6a" stroke-linecap="round" stroke-linejoin="round" stroke-width="3"/>
  </g>
</svg>
