<svg xmlns="http://www.w3.org/2000/svg" width="8.549" height="18.716" viewBox="0 0 8.549 18.716">
  <path id="Icon_ionic-ios-arrow-round-up" data-name="Icon ionic-ios-arrow-round-up" d="M19.632,12.526a.582.582,0,0,1-.819,0L16.1,9.828v16.2a.579.579,0,0,1-1.158,0V9.828l-2.711,2.707a.586.586,0,0,1-.819,0,.576.576,0,0,1,0-.815l3.7-3.668h0a.65.65,0,0,1,.183-.12.552.552,0,0,1,.223-.045.58.58,0,0,1,.405.165l3.7,3.668A.567.567,0,0,1,19.632,12.526Z" transform="translate(-11.247 -7.882)" fill="#00adc6"/>
</svg>
