<svg xmlns="http://www.w3.org/2000/svg" width="14.011" height="14.011" viewBox="0 0 14.011 14.011">
  <g id="Icon_feather-arrow-down" data-name="Icon feather-arrow-down" transform="translate(13.011 1) rotate(90)">
    <path id="Unión_31" data-name="Unión 31" d="M1990.862,5524.518h-.057a.988.988,0,0,1-.564-.215l0,0-.015-.012-.008-.006-.011-.01-.009-.008-.009-.008-.011-.01-.006-.006-.013-.013h0q-.027-.026-.051-.056l-6.006-7.006a1,1,0,0,1,1.519-1.3l4.246,4.955v-9.309a1,1,0,0,1,2,0v9.309l4.247-4.955a1,1,0,0,1,1.518,1.3l-6.006,7.006a.976.976,0,0,1-.24.2h0l-.016.009-.008,0-.011.006-.014.007-.007,0-.02.01h0a.991.991,0,0,1-.36.1h-.082Z" transform="translate(-1984.857 -5511.506)"/>
  </g>
</svg>
