<svg xmlns="http://www.w3.org/2000/svg" width="16.974" height="16.974" viewBox="0 0 16.974 16.974">
  <path id="Trazado_9094" data-name="Trazado 9094" d="M10.737,7.3v6.877M7.3,10.737h6.877M7.126,18.474h7.221a6.407,6.407,0,0,0,2.718-.281,2.578,2.578,0,0,0,1.127-1.127,6.407,6.407,0,0,0,.281-2.718V7.126a6.407,6.407,0,0,0-.281-2.718,2.579,2.579,0,0,0-1.127-1.127A6.407,6.407,0,0,0,14.347,3H7.126a6.407,6.407,0,0,0-2.718.281A2.579,2.579,0,0,0,3.281,4.408,6.407,6.407,0,0,0,3,7.126v7.221a6.407,6.407,0,0,0,.281,2.718,2.579,2.579,0,0,0,1.127,1.127A6.407,6.407,0,0,0,7.126,18.474Z" transform="translate(-2.25 -2.25)" fill="none" stroke="#fff" stroke-linecap="round" stroke-linejoin="round" stroke-width="1.5"/>
</svg>
