<svg xmlns="http://www.w3.org/2000/svg" width="18.001" height="18" viewBox="0 0 18.001 18"><defs><style>.a{fill:#6a707e;}</style></defs><path class="a" d="M17.965,13.317l-.939-5.625a1.125,1.125,0,0,0-1.111-.939H7.309V4.5h3.375a.564.564,0,0,0,.563-.563V.563A.564.564,0,0,0,10.684,0h-9a.564.564,0,0,0-.563.563V3.938a.564.564,0,0,0,.563.563H5.059V6.75H2.074a1.128,1.128,0,0,0-1.111.939L.025,13.314a2.181,2.181,0,0,0-.032.369v3.192A1.124,1.124,0,0,0,1.118,18h15.75a1.124,1.124,0,0,0,1.125-1.125V13.686A1.866,1.866,0,0,0,17.965,13.317ZM9.84,8.719a.564.564,0,0,1,.563-.563h.563a.564.564,0,0,1,.563.563v.563a.564.564,0,0,1-.563.563H10.4a.564.564,0,0,1-.563-.563Zm-1.125,2.25h.563a.564.564,0,0,1,.563.563v.563a.564.564,0,0,1-.563.563H8.715a.564.564,0,0,1-.563-.563v-.563A.564.564,0,0,1,8.715,10.969ZM7.59,8.156a.564.564,0,0,1,.563.563v.563a.564.564,0,0,1-.563.563H7.028a.564.564,0,0,1-.563-.563V8.719a.564.564,0,0,1,.563-.563ZM2.809,2.813V1.688h6.75V2.813ZM4.215,9.844H3.653a.564.564,0,0,1-.563-.563V8.719a.564.564,0,0,1,.563-.563h.563a.564.564,0,0,1,.563.563v.563A.564.564,0,0,1,4.215,9.844Zm.563,2.25v-.563a.564.564,0,0,1,.563-.563H5.9a.564.564,0,0,1,.563.563v.563a.564.564,0,0,1-.563.563H5.34A.564.564,0,0,1,4.778,12.094Zm7.594,3.938a.282.282,0,0,1-.281.281H5.9a.282.282,0,0,1-.281-.281v-.563a.282.282,0,0,1,.281-.281H12.09a.282.282,0,0,1,.281.281Zm.844-3.938a.564.564,0,0,1-.563.563H12.09a.564.564,0,0,1-.563-.563v-.563a.564.564,0,0,1,.563-.563h.563a.564.564,0,0,1,.563.563ZM14.9,9.281a.564.564,0,0,1-.563.563h-.563a.564.564,0,0,1-.563-.563V8.719a.564.564,0,0,1,.563-.563h.563a.564.564,0,0,1,.563.563Z" transform="translate(0.007)"/></svg>