<svg xmlns="http://www.w3.org/2000/svg" width="18.322" height="16.032" viewBox="0 0 18.322 16.032"><defs><style>.a{fill:#6b99a5;}</style></defs><g transform="translate(-69.621 -213.609)"><g transform="translate(65.621 208.609)"><g transform="translate(4 5)"><path class="a" d="M17.871,25.527H11.763a.763.763,0,0,1,0-1.527h6.107a.763.763,0,0,1,0,1.527Z" transform="translate(-5.656 -9.495)"/><path class="a" d="M21.559,5H4.763A.763.763,0,0,0,4,5.763V17.978a.763.763,0,0,0,.763.763h16.8a.763.763,0,0,0,.763-.763V5.763A.763.763,0,0,0,21.559,5ZM9.344,14.925a.763.763,0,0,1-1.527,0v-2.29a.763.763,0,0,1,1.527,0Zm4.581,0a.763.763,0,0,1-1.527,0V11.107a.763.763,0,0,1,1.527,0Zm4.581,0a.763.763,0,0,1-1.527,0V8.817a.763.763,0,0,1,1.527,0Z" transform="translate(-4 -5)"/></g></g></g></svg>