<svg xmlns="http://www.w3.org/2000/svg" width="14.017" height="14.019" viewBox="0 0 14.017 14.019">
  <g id="Grupo_12798" data-name="Grupo 12798" transform="translate(-133.242 -3165.085)">
    <path id="Trazado_3287" data-name="Trazado 3287"
      d="M12.954,17.948H4.244A2,2,0,0,1,2.25,15.954V7.244A2,2,0,0,1,4.244,5.25H8.6a.75.75,0,0,1,0,1.5H4.244a.5.5,0,0,0-.494.494v8.709a.5.5,0,0,0,.494.494h8.709a.5.5,0,0,0,.494-.494V11.6a.75.75,0,0,1,1.5,0v4.355A2,2,0,0,1,12.954,17.948Z"
      transform="translate(130.992 3161.156)" fill="#000" />
    <path id="Trazado_3288" data-name="Trazado 3288"
      d="M19.465,2.068A2.07,2.07,0,0,1,20.929,5.6l-5.91,5.91a.75.75,0,0,1-.348.2l-2.488.622a.75.75,0,0,1-.91-.91l.622-2.488a.75.75,0,0,1,.2-.348L18,2.674A2.056,2.056,0,0,1,19.465,2.068ZM14.1,10.3l5.763-5.763a.57.57,0,0,0-.806-.806L13.3,9.5l-.269,1.074Z"
      transform="translate(125.724 3163.017)" fill="#000" />
  </g>
</svg>