<svg xmlns="http://www.w3.org/2000/svg" width="22.47" height="21.065" viewBox="0 0 22.47 21.065"><defs><style>.a{fill:#fff;}</style></defs><path class="a" d="M12.385,16.17a.707.707,0,0,0-.577-.149L.573,18.128a.7.7,0,0,0-.573.69V34.266a.7.7,0,0,0,.573.69l11.235,2.107a.672.672,0,0,0,.129.013.7.7,0,0,0,.7-.7V16.711A.7.7,0,0,0,12.385,16.17Zm-1.15,19.356L1.4,33.683V19.4l9.831-1.843Z" transform="translate(0 -16.01)"/><g transform="translate(11.235 2.808)"><path class="a" d="M266.533,79.99H256.7a.7.7,0,1,0,0,1.4h9.129v12.64H256.7a.7.7,0,1,0,0,1.4h9.831a.7.7,0,0,0,.7-.7V80.692A.7.7,0,0,0,266.533,79.99Z" transform="translate(-256 -79.99)"/></g><g transform="translate(11.235 5.617)"><path class="a" d="M259.511,143.99H256.7a.7.7,0,1,0,0,1.4h2.809a.7.7,0,1,0,0-1.4Z" transform="translate(-256 -143.99)"/></g><g transform="translate(11.235 8.426)"><path class="a" d="M259.511,207.99H256.7a.7.7,0,1,0,0,1.4h2.809a.7.7,0,1,0,0-1.4Z" transform="translate(-256 -207.99)"/></g><g transform="translate(11.235 11.234)"><path class="a" d="M259.511,271.99H256.7a.7.7,0,0,0,0,1.4h2.809a.7.7,0,0,0,0-1.4Z" transform="translate(-256 -271.99)"/></g><g transform="translate(11.235 14.043)"><path class="a" d="M259.511,335.99H256.7a.7.7,0,0,0,0,1.4h2.809a.7.7,0,0,0,0-1.4Z" transform="translate(-256 -335.99)"/></g><g transform="translate(16.853 5.617)"><path class="a" d="M386.107,143.99h-1.4a.7.7,0,1,0,0,1.4h1.4a.7.7,0,1,0,0-1.4Z" transform="translate(-384 -143.99)"/></g><g transform="translate(16.853 8.426)"><path class="a" d="M386.107,207.99h-1.4a.7.7,0,1,0,0,1.4h1.4a.7.7,0,1,0,0-1.4Z" transform="translate(-384 -207.99)"/></g><g transform="translate(16.853 11.234)"><path class="a" d="M386.107,271.99h-1.4a.7.7,0,1,0,0,1.4h1.4a.7.7,0,0,0,0-1.4Z" transform="translate(-384 -271.99)"/></g><g transform="translate(16.853 14.043)"><path class="a" d="M386.107,335.99h-1.4a.7.7,0,1,0,0,1.4h1.4a.7.7,0,0,0,0-1.4Z" transform="translate(-384 -335.99)"/></g><g transform="translate(3.511 7.021)"><path class="a" d="M86.151,181.842l-4.915-5.618a.7.7,0,0,0-1.058.924l4.915,5.618a.7.7,0,0,0,1.058-.924Z" transform="translate(-80.004 -175.984)"/></g><g transform="translate(3.511 6.319)"><path class="a" d="M86.048,160.141a.7.7,0,0,0-.986.122l-4.915,6.32a.7.7,0,0,0,1.108.864l4.915-6.32A.7.7,0,0,0,86.048,160.141Z" transform="translate(-79.999 -159.992)"/></g></svg>