<svg xmlns="http://www.w3.org/2000/svg" width="19.125" height="25.5" viewBox="0 0 19.125 25.5"><defs><style>.a{fill:#00adc6;}</style></defs><path class="a" d="M11.156,6.773V0H1.2A1.192,1.192,0,0,0,0,1.2V24.3a1.192,1.192,0,0,0,1.2,1.2H17.93a1.192,1.192,0,0,0,1.2-1.2V7.969H12.352A1.2,1.2,0,0,1,11.156,6.773Zm3.188,11.754a.6.6,0,0,1-.6.6H5.379a.6.6,0,0,1-.6-.6v-.4a.6.6,0,0,1,.6-.6h8.367a.6.6,0,0,1,.6.6Zm0-3.187a.6.6,0,0,1-.6.6H5.379a.6.6,0,0,1-.6-.6v-.4a.6.6,0,0,1,.6-.6h8.367a.6.6,0,0,1,.6.6Zm0-3.586v.4a.6.6,0,0,1-.6.6H5.379a.6.6,0,0,1-.6-.6v-.4a.6.6,0,0,1,.6-.6h8.367A.6.6,0,0,1,14.344,11.754Zm4.781-5.683v.3H12.75V0h.3A1.194,1.194,0,0,1,13.9.349l4.876,4.881A1.191,1.191,0,0,1,19.125,6.071Z"/></svg>