<svg xmlns="http://www.w3.org/2000/svg" width="11.901" height="11.901" viewBox="0 0 11.901 11.901">
  <g id="Grupo_13277" data-name="Grupo 13277" transform="translate(-354.466 -13.117)">
    <path id="Trazado_7746" data-name="Trazado 7746" d="M430.2,25.25a5.95,5.95,0,1,1-5.95,5.95A5.957,5.957,0,0,1,430.2,25.25Zm0,10.4a4.45,4.45,0,1,0-4.45-4.45A4.455,4.455,0,0,0,430.2,35.651Z" transform="translate(-69.784 -12.133)"/>
    <path id="Trazado_8213" data-name="Trazado 8213" d="M429.56,34.584a.75.75,0,0,1-.557-.248l-1.56-1.733a.75.75,0,0,1,1.115-1l.983,1.092,3.086-3.673a.75.75,0,0,1,1.149.965l-3.64,4.334a.75.75,0,0,1-.561.267Z" transform="translate(-70.184 -12.599)"/>
  </g>
</svg>
