<svg xmlns="http://www.w3.org/2000/svg" width="16.327" height="16.325" viewBox="0 0 16.327 16.325">
  <path id="Unión_3" data-name="Unión 3" d="M-4102.034-210.714a8.173,8.173,0,0,1,8.163-8.163,8.172,8.172,0,0,1,8.164,8.163,8.172,8.172,0,0,1-8.164,8.163A8.173,8.173,0,0,1-4102.034-210.714Zm1.2,0a6.97,6.97,0,0,0,6.962,6.962,6.971,6.971,0,0,0,6.963-6.962,6.971,6.971,0,0,0-6.963-6.962A6.97,6.97,0,0,0-4100.833-210.714Zm6.538,4.306-3.482-3.482a.6.6,0,0,1,0-.849.6.6,0,0,1,.849,0l2.457,2.458V-214.6a.6.6,0,0,1,.6-.6.6.6,0,0,1,.6.6v6.316l2.458-2.458a.6.6,0,0,1,.848,0,.6.6,0,0,1,0,.849l-3.482,3.482a.6.6,0,0,1-.425.176A.6.6,0,0,1-4094.3-206.408Z" transform="translate(4102.034 218.877)"/>
</svg>
