<svg xmlns="http://www.w3.org/2000/svg" width="18.75" height="18.75" viewBox="0 0 18.75 18.75"><defs><style>.a{fill:red;}</style></defs><path class="a" d="M19.369,18.349l-2.375-2.375L19.369,13.6a.72.72,0,0,0-1.019-1.019l-2.375,2.375L13.6,12.579A.72.72,0,1,0,12.581,13.6l2.375,2.375-2.375,2.375a.7.7,0,0,0,0,1.019.715.715,0,0,0,1.019,0l2.375-2.375,2.375,2.375a.724.724,0,0,0,1.019,0A.716.716,0,0,0,19.369,18.349Z" transform="translate(-6.6 -6.598)"/><path class="a" d="M12.75,4.637A8.11,8.11,0,1,1,7.012,7.012,8.059,8.059,0,0,1,12.75,4.637m0-1.262a9.375,9.375,0,1,0,9.375,9.375A9.374,9.374,0,0,0,12.75,3.375Z" transform="translate(-3.375 -3.375)"/></svg>