<svg xmlns="http://www.w3.org/2000/svg" width="57.16" height="100.101" viewBox="0 0 57.16 100.101">
  <g id="Grupo_14589" data-name="Grupo 14589" transform="translate(-101.413 -29.5)">
    <g id="Grupo_13090" data-name="Grupo 13090" transform="translate(101.413 29.5)">
      <path id="Trazado_8729" data-name="Trazado 8729" d="M1185.719,506.445a28.483,28.483,0,0,0-2.231-8L1157.46,439.9l-25.13,57.192a34.483,34.483,0,0,0-1.662,4.7,28.585,28.585,0,1,0,55.051,4.656Z" transform="translate(-1129 -439.899)" fill="#fff"/>
      <path id="Trazado_8730" data-name="Trazado 8730" d="M1171.852,543.352a4.855,4.855,0,0,0-.38-1.365l-4.44-9.987-4.287,9.756a5.846,5.846,0,0,0-.284.8,4.876,4.876,0,1,0,9.391.794Z" transform="translate(-1138.472 -466.194)" fill="#024960"/>
      <circle id="Elipse_854" data-name="Elipse 854" cx="20.72" cy="20.72" r="20.72" transform="translate(8.217 51.873)" fill="none" stroke="#024960" stroke-width="2"/>
    </g>
  </g>
</svg>
