<svg xmlns="http://www.w3.org/2000/svg" width="65.258" height="65.258" viewBox="0 0 65.258 65.258">
  <path id="Icon_ionic-ios-alert" data-name="Icon ionic-ios-alert" d="M36,3.375A32.629,32.629,0,1,0,68.633,36,32.624,32.624,0,0,0,36,3.375Zm2.7,17.193-.486,18.056A2.245,2.245,0,0,1,36,40.945h0a2.245,2.245,0,0,1-2.212-2.322l-.486-18.056A2.7,2.7,0,0,1,36,17.807h0A2.7,2.7,0,0,1,38.7,20.568ZM36,51.377a2.888,2.888,0,1,1,3-2.886A2.914,2.914,0,0,1,36,51.377Z" transform="translate(-3.375 -3.375)" fill="#d9000d"/>
</svg>
