<svg xmlns="http://www.w3.org/2000/svg" width="14.501" height="14.812" viewBox="0 0 14.501 14.812">
  <path id="Trazado_8292" data-name="Trazado 8292" d="M16,11.667v.867a5.383,5.383,0,0,1-.236,2.284,2.166,2.166,0,0,1-.947.947A5.383,5.383,0,0,1,12.534,16H6.467a5.383,5.383,0,0,1-2.284-.236,2.167,2.167,0,0,1-.947-.947A5.383,5.383,0,0,1,3,12.534v-.867M13.112,6.611,9.5,3m0,0L5.889,6.611M9.5,3v8.667" transform="translate(-2.25 -1.939)" fill="none" stroke="#2c2e2f" stroke-linecap="round" stroke-linejoin="round" stroke-width="1.5"/>
</svg>
