<svg xmlns="http://www.w3.org/2000/svg" width="13.357" height="16.322" viewBox="0 0 13.357 16.322">
  <path id="Trazado_9079" data-name="Trazado 9079" d="M11.411,2.2V5.261a1.841,1.841,0,0,0,.081.781.741.741,0,0,0,.324.324,1.841,1.841,0,0,0,.781.081h3.061m-4.247,6.67H6.964m5.929-2.964H6.964M15.857,7.92v5.345a5.523,5.523,0,0,1-.242,2.343,2.223,2.223,0,0,1-.972.972,5.523,5.523,0,0,1-2.343.242H7.557a5.523,5.523,0,0,1-2.343-.242,2.223,2.223,0,0,1-.972-.972A5.524,5.524,0,0,1,4,13.265V5.557a5.523,5.523,0,0,1,.242-2.343,2.223,2.223,0,0,1,.972-.972A5.523,5.523,0,0,1,7.557,2h2.38a4.757,4.757,0,0,1,1.072.061,2.224,2.224,0,0,1,.643.266,4.759,4.759,0,0,1,.8.714L14.816,5.4a4.754,4.754,0,0,1,.714.8,2.223,2.223,0,0,1,.266.643A4.756,4.756,0,0,1,15.857,7.92Z" transform="translate(-3.25 -1.25)" fill="none" stroke="#2c2e2f" stroke-linecap="round" stroke-linejoin="round" stroke-width="1.5"/>
</svg>
