<svg xmlns="http://www.w3.org/2000/svg" width="15.5" height="15.5" viewBox="0 0 15.5 15.5">
  <path id="Trazado_3645" data-name="Trazado 3645" d="M12.333,17V12.8a1.932,1.932,0,0,0-.085-.82.778.778,0,0,0-.34-.34,1.932,1.932,0,0,0-.82-.085H8.911a1.932,1.932,0,0,0-.82.085.778.778,0,0,0-.34.34,1.932,1.932,0,0,0-.085.82V17M3,6.111a2.333,2.333,0,1,0,4.667,0,2.333,2.333,0,0,0,4.667,0,2.333,2.333,0,1,0,4.667,0M5.489,17h9.022a3.864,3.864,0,0,0,1.64-.17,1.555,1.555,0,0,0,.68-.68,3.864,3.864,0,0,0,.17-1.64V5.489a3.864,3.864,0,0,0-.17-1.64,1.555,1.555,0,0,0-.68-.68A3.865,3.865,0,0,0,14.511,3H5.489a3.865,3.865,0,0,0-1.64.17,1.555,1.555,0,0,0-.68.68A3.864,3.864,0,0,0,3,5.489v9.022a3.865,3.865,0,0,0,.17,1.64,1.555,1.555,0,0,0,.68.68A3.864,3.864,0,0,0,5.489,17Z" transform="translate(-2.25 -2.25)" fill="none" stroke-linecap="round" stroke-linejoin="round" stroke-width="1.5"/>
</svg>
