<svg xmlns="http://www.w3.org/2000/svg" width="14.467" height="15.908" viewBox="0 0 14.467 15.908">
  <path id="Trazado_8291" data-name="Trazado 8291" d="M12.365,4.882V4.305a3.579,3.579,0,0,0-.157-1.519,1.441,1.441,0,0,0-.63-.63A3.58,3.58,0,0,0,10.06,2H8.907a3.579,3.579,0,0,0-1.519.157,1.441,1.441,0,0,0-.63.63A3.579,3.579,0,0,0,6.6,4.305v.576M8.043,8.844v3.6m2.882-3.6v3.6M3,4.882H15.967m-1.441,0V12.95a5.369,5.369,0,0,1-.236,2.278,2.161,2.161,0,0,1-.944.944,5.369,5.369,0,0,1-2.278.236H7.9a5.369,5.369,0,0,1-2.278-.236,2.161,2.161,0,0,1-.944-.944,5.369,5.369,0,0,1-.236-2.278V4.882" transform="translate(-2.25 -1.25)" fill="none" stroke="#2c2e2f" stroke-linecap="round" stroke-linejoin="round" stroke-width="1.5"/>
</svg>
