<svg xmlns="http://www.w3.org/2000/svg" width="15.315" height="15.315" viewBox="0 0 15.315 15.315">
  <path id="Trazado_8293" data-name="Trazado 8293" d="M16.815,12.21v.921a5.72,5.72,0,0,1-.251,2.427,2.3,2.3,0,0,1-1.006,1.006,5.72,5.72,0,0,1-2.427.251H6.684a5.72,5.72,0,0,1-2.427-.251,2.3,2.3,0,0,1-1.006-1.006A5.721,5.721,0,0,1,3,13.131V12.21M13.745,8.373,9.908,12.21m0,0L6.07,8.373M9.908,12.21V3" transform="translate(-2.25 -2.25)" fill="none" stroke="#2c2e2f" stroke-linecap="round" stroke-linejoin="round" stroke-width="1.5"/>
</svg>
