<svg xmlns="http://www.w3.org/2000/svg" width="18.92" height="22" viewBox="0 0 18.92 22">
  <g id="Grupo_13231" data-name="Grupo 13231" transform="translate(-1068.14 -35.765)">
    <path id="Trazado_3343" data-name="Trazado 3343" d="M15,19a3,3,0,1,1-6,0M13.8,6.239a2.5,2.5,0,1,0-3.593,0M18,11.2a4.875,4.875,0,0,0-1.757-3.677A6.5,6.5,0,0,0,12,6,6.5,6.5,0,0,0,7.757,7.523,4.875,4.875,0,0,0,6,11.2a9.919,9.919,0,0,1-1.272,5.145,11.225,11.225,0,0,0-1.191,2.2.393.393,0,0,0,.2.355,8.248,8.248,0,0,0,2.119.1H18.142a8.248,8.248,0,0,0,2.119-.1.393.393,0,0,0,.2-.355,11.232,11.232,0,0,0-1.191-2.2A9.918,9.918,0,0,1,18,11.2Z" transform="translate(1065.6 34.765)" fill="none" stroke="#c9d4d8" stroke-linecap="round" stroke-linejoin="round" stroke-width="2"/>
  </g>
</svg>
