<svg xmlns="http://www.w3.org/2000/svg" width="51.939" height="51.939" viewBox="0 0 51.939 51.939">
  <path id="Icon_awesome-check-circle" data-name="Icon awesome-check-circle" d="M52.5,26.532A25.97,25.97,0,1,1,26.532.563,25.97,25.97,0,0,1,52.5,26.532ZM23.528,40.283,42.8,21.015a1.675,1.675,0,0,0,0-2.369l-2.369-2.369a1.675,1.675,0,0,0-2.37,0L22.344,31.99l-7.336-7.336a1.676,1.676,0,0,0-2.37,0l-2.369,2.369a1.675,1.675,0,0,0,0,2.369L21.159,40.283a1.676,1.676,0,0,0,2.37,0Z" transform="translate(-0.563 -0.563)" fill="#fff"/>
</svg>
