<svg xmlns="http://www.w3.org/2000/svg" width="11.798" height="12.998" viewBox="0 0 11.798 12.998">
  <g id="Grupo_13056" data-name="Grupo 13056" transform="translate(-923.5 -403.5)">
    <path id="Trazado_8733" data-name="Trazado 8733" d="M13.8,6.8H3M10.8,2V4.4M6,2V4.4M5.88,14h5.039a4.471,4.471,0,0,0,1.9-.2,1.8,1.8,0,0,0,.786-.786,4.471,4.471,0,0,0,.2-1.9V6.079a4.471,4.471,0,0,0-.2-1.9,1.8,1.8,0,0,0-.786-.787,4.471,4.471,0,0,0-1.9-.2H5.88a4.471,4.471,0,0,0-1.9.2,1.8,1.8,0,0,0-.787.787,4.471,4.471,0,0,0-.2,1.9v5.039a4.471,4.471,0,0,0,.2,1.9,1.8,1.8,0,0,0,.787.786A4.471,4.471,0,0,0,5.88,14Z" transform="translate(921 402)" fill="none" stroke="#12467e" stroke-linecap="round" stroke-linejoin="round" stroke-width="1"/>
  </g>
</svg>
