<svg xmlns="http://www.w3.org/2000/svg" width="20.977" height="22.283" viewBox="0 0 20.977 22.283">
  <g id="Grupo_13230" data-name="Grupo 13230" transform="translate(-1068.14 -35.482)">
    <path id="Trazado_3343" data-name="Trazado 3343" d="M15,19a3,3,0,1,1-6,0M13.8,6.239a2.5,2.5,0,1,0-3.593,0M18,11.2a4.875,4.875,0,0,0-1.757-3.677A6.5,6.5,0,0,0,12,6,6.5,6.5,0,0,0,7.757,7.523,4.875,4.875,0,0,0,6,11.2a9.919,9.919,0,0,1-1.272,5.145,11.225,11.225,0,0,0-1.191,2.2.393.393,0,0,0,.2.355,8.248,8.248,0,0,0,2.119.1H18.142a8.248,8.248,0,0,0,2.119-.1.393.393,0,0,0,.2-.355,11.232,11.232,0,0,0-1.191-2.2A9.918,9.918,0,0,1,18,11.2Z" transform="translate(1065.6 34.765)" fill="none" stroke="#163f70" stroke-linecap="round" stroke-linejoin="round" stroke-width="2"/>
    <circle id="Elipse_145" data-name="Elipse 145" cx="3.054" cy="3.054" r="3.054" transform="translate(1083.01 35.482)" fill="red"/>
  </g>
</svg>
