<svg xmlns="http://www.w3.org/2000/svg" width="18.813" height="18.813" viewBox="0 0 18.813 18.813"><defs><style>.a{fill:#00adc6;}</style></defs><g transform="translate(-3.375 -3.375)"><path class="a" d="M19.392,18.369l-2.383-2.383L19.392,13.6A.723.723,0,1,0,18.37,12.58l-2.383,2.383L13.6,12.58A.723.723,0,0,0,12.582,13.6l2.383,2.383-2.383,2.383a.7.7,0,0,0,0,1.022.718.718,0,0,0,1.022,0l2.383-2.383,2.383,2.383a.726.726,0,0,0,1.022,0A.718.718,0,0,0,19.392,18.369Z" transform="translate(-3.206 -3.204)"/><path class="a" d="M12.781,4.641A8.137,8.137,0,1,1,7.024,7.024a8.086,8.086,0,0,1,5.757-2.383m0-1.266a9.406,9.406,0,1,0,9.406,9.406,9.4,9.4,0,0,0-9.406-9.406Z" transform="translate(0 0)"/></g></svg>