<svg id="Grupo_12718" data-name="Grupo 12718" xmlns="http://www.w3.org/2000/svg" xmlns:xlink="http://www.w3.org/1999/xlink" width="69.562" height="79.501" viewBox="0 0 69.562 79.501">
  <defs>
    <clipPath id="clip-path">
      <rect id="Rectángulo_5402" data-name="Rectángulo 5402" width="69.562" height="79.501" transform="translate(0 0)" fill="none"/>
    </clipPath>
  </defs>
  <g id="Grupo_12717" data-name="Grupo 12717" clip-path="url(#clip-path)">
    <path id="Trazado_4425" data-name="Trazado 4425" d="M39.751,10.3V4.969h4.968a2.484,2.484,0,0,0,0-4.969H24.843a2.484,2.484,0,0,0-2.484,2.484h0a2.484,2.484,0,0,0,2.484,2.484h4.97V10.3A34.78,34.78,0,0,0,34.78,79.5h0a34.78,34.78,0,0,0,4.97-69.2m-4.97,64.234A29.813,29.813,0,0,1,4.969,44.719h0A29.813,29.813,0,1,1,34.781,74.532" fill="#00be72"/>
    <path id="Trazado_4426" data-name="Trazado 4426" d="M34.781,22.359h0A2.484,2.484,0,0,0,32.3,24.844V42.231H17.39a2.485,2.485,0,0,0,0,4.969H34.781a2.484,2.484,0,0,0,2.484-2.481V24.843a2.484,2.484,0,0,0-2.484-2.484" fill="#00be72"/>
  </g>
</svg>
