<svg xmlns="http://www.w3.org/2000/svg" width="51.398" height="90.012" viewBox="0 0 51.398 90.012">
  <g id="Grupo_13090" data-name="Grupo 13090" transform="translate(-1129 -439.899)">
    <path id="Trazado_8729" data-name="Trazado 8729" d="M1180,499.738a25.607,25.607,0,0,0-2.006-7.193l-23.4-52.646-22.6,51.428a31.007,31.007,0,0,0-1.494,4.224,25.7,25.7,0,1,0,49.5,4.187Z" transform="translate(0 0)" fill="#fff"/>
    <path id="Trazado_8730" data-name="Trazado 8730" d="M1170.877,542.208a4.368,4.368,0,0,0-.342-1.227l-3.992-8.98-3.855,8.773a5.249,5.249,0,0,0-.255.72,4.384,4.384,0,1,0,8.444.714Z" transform="translate(-11.862 -32.928)" fill="#024960"/>
    <circle id="Elipse_854" data-name="Elipse 854" cx="18.632" cy="18.632" r="18.632" transform="translate(1136.388 486.543)" fill="none" stroke="#024960" stroke-width="2"/>
  </g>
</svg>
