<svg xmlns="http://www.w3.org/2000/svg" width="15.695" height="15.693" viewBox="0 0 15.695 15.693"><defs><style>.a{fill:#6b99a5;}</style></defs><path class="a" d="M19.731,16.791a13.183,13.183,0,0,0-2.754-1.843c-.825-.4-1.128-.388-1.712.033-.486.351-.8.678-1.361.556a8.116,8.116,0,0,1-2.733-2.022,8.058,8.058,0,0,1-2.022-2.733c-.118-.564.208-.874.556-1.361.421-.584.433-.887.033-1.712A12.922,12.922,0,0,0,7.9,4.955c-.6-.6-.735-.47-1.066-.351a6.068,6.068,0,0,0-.976.519A2.946,2.946,0,0,0,4.68,6.36c-.233.5-.5,1.438.87,3.881A21.658,21.658,0,0,0,9.358,15.32h0l0,0,0,0h0a21.742,21.742,0,0,0,5.079,3.808c2.443,1.373,3.379,1.1,3.881.87a2.9,2.9,0,0,0,1.238-1.173,6.068,6.068,0,0,0,.519-.976C20.2,17.526,20.336,17.391,19.731,16.791Z" transform="translate(-4.49 -4.503)"/></svg>