<svg xmlns="http://www.w3.org/2000/svg" width="18.004" height="15.75" viewBox="0 0 18.004 15.75"><defs><style>.a{fill:#6b99a5;}</style></defs><path class="a" d="M22011.156,16953.75h-16.314a.847.847,0,0,1-.844-.846v-14.059a.847.847,0,0,1,.844-.846h3.939a.849.849,0,0,1,.846.846v6.9l4.889-3.111a.842.842,0,0,1,1.3.713v2.4l4.889-3.111a.842.842,0,0,1,1.3.713v9.557A.849.849,0,0,1,22011.156,16953.75Zm-4.154-4.2a1,1,0,1,0,0,2h2a1,1,0,1,0,0-2Zm-5,0a1,1,0,1,0,0,2h2a1,1,0,1,0,0-2Zm-5,0a1,1,0,1,0,0,2h2a1,1,0,1,0,0-2Z" transform="translate(-21993.998 -16938)"/></svg>