<svg xmlns="http://www.w3.org/2000/svg" width="53.145" height="53.145" viewBox="0 0 53.145 53.145"><defs><style>.a{fill:#cecece;fill-rule:evenodd;}</style></defs><g transform="translate(-5 -5)"><g transform="translate(5 5)"><path class="a" d="M46.309,10.826a2.953,2.953,0,0,0-4.176-4.176L6.651,42.133a2.953,2.953,0,1,0,4.176,4.176ZM43.244,39.9a21.485,21.485,0,0,0,3.45-20.7,2.294,2.294,0,0,0-3.778-.809l-.1.1a2.33,2.33,0,0,0-.526,2.435A16.746,16.746,0,0,1,20.933,42.287a2.331,2.331,0,0,0-2.435.526l-.1.1a2.294,2.294,0,0,0,.809,3.778,21.479,21.479,0,0,0,20.7-3.45l14.21,14.21a2.362,2.362,0,1,0,3.341-3.341ZM6.206,33.586a21.487,21.487,0,0,1,27.38-27.38,2.36,2.36,0,0,1,.919,3.9l-.019.019A2.388,2.388,0,0,1,32,10.661,16.746,16.746,0,0,0,10.661,31.995a2.388,2.388,0,0,1-.539,2.491L10.1,34.5a2.36,2.36,0,0,1-3.9-.919Z" transform="translate(-5 -5)"/></g></g></svg>