<svg xmlns="http://www.w3.org/2000/svg" width="7.336" height="7.336" viewBox="0 0 7.336 7.336">
  <path id="Trazado_9066" data-name="Trazado 9066" d="M4.784,4.7A5,5,0,0,0,7.116,7.029a.58.58,0,0,0,.09.038.356.356,0,0,0,.293-.05.686.686,0,0,0,.081-.075,1.7,1.7,0,0,1,.238-.217.68.68,0,0,1,.742,0,1.7,1.7,0,0,1,.238.217l.066.066a1.7,1.7,0,0,1,.32.368.68.68,0,0,1,0,.614,1.7,1.7,0,0,1-.32.368l-.054.054a1.878,1.878,0,0,1-.393.339,1.149,1.149,0,0,1-.5.131A1.454,1.454,0,0,1,7.487,8.8,6.514,6.514,0,0,1,3.012,4.326,1.454,1.454,0,0,1,2.93,3.9a1.149,1.149,0,0,1,.131-.5A1.88,1.88,0,0,1,3.4,3l.054-.054a1.7,1.7,0,0,1,.368-.32.68.68,0,0,1,.614,0,1.7,1.7,0,0,1,.368.32l.066.066a1.707,1.707,0,0,1,.217.238.68.68,0,0,1,0,.742,1.707,1.707,0,0,1-.217.238.687.687,0,0,0-.075.081.356.356,0,0,0-.05.293A.578.578,0,0,0,4.784,4.7Z" transform="translate(-2.43 -2.047)" fill="none" stroke="#4babc3" stroke-linecap="round" stroke-linejoin="round" stroke-width="1"/>
</svg>
