<svg xmlns="http://www.w3.org/2000/svg" width="24" height="24" viewBox="0 0 24 24">
  <g id="vuesax_bold_location" data-name="vuesax/bold/location" transform="translate(-428 -188)">
    <g id="Vector" transform="translate(431.12 189.75)" fill="#df6c92">
      <path d="M 8.879979133605957 20 C 7.597669124603271 20 6.378368854522705 19.50625038146973 5.446669101715088 18.60971069335938 C 2.679989099502563 15.94944953918457 -0.382690966129303 11.74133968353271 0.7375990152359009 6.800570011138916 C 1.726759076118469 2.448260068893433 5.53481912612915 0.5 8.869978904724121 0.5 L 8.879979133605957 0.5 C 12.21400928497314 0.5 16.02162933349609 2.451349973678589 17.01240921020508 6.810810089111328 C 18.1311092376709 11.74454975128174 15.06911945343018 15.95026016235352 12.30342864990234 18.60957908630371 C 11.37976932525635 19.50683975219727 10.16461944580078 20 8.879979133605957 20 Z M 8.879979133605957 4.909999847412109 C 6.867359161376953 4.909999847412109 5.229979038238525 6.547379970550537 5.229979038238525 8.560000419616699 C 5.229979038238525 10.5726203918457 6.867359161376953 12.21000003814697 8.879979133605957 12.21000003814697 C 10.89259910583496 12.21000003814697 12.52997875213623 10.5726203918457 12.52997875213623 8.560000419616699 C 12.52997875213623 6.547379970550537 10.89259910583496 4.909999847412109 8.879979133605957 4.909999847412109 Z" stroke="none"/>
      <path d="M 8.869978904724121 1 C 5.733478546142578 1 2.153228759765625 2.827920913696289 1.2252197265625 6.911129951477051 C 0.1565284729003906 11.62436008453369 3.119379043579102 15.67828941345215 5.79335880279541 18.24942970275879 C 6.631428718566895 19.05587005615234 7.727608680725098 19.5 8.879979133605957 19.5 C 10.03379917144775 19.5 11.12521934509277 19.05703926086426 11.9531888961792 18.25271987915039 L 11.95686912536621 18.24917030334473 C 14.62972927093506 15.67910957336426 17.59188842773438 11.62757015228271 16.52484893798828 6.92162036895752 C 15.59515953063965 2.831010818481445 12.01534843444824 1 8.879979133605957 1 L 8.869978904724121 1 M 8.879979133605957 12.71000003814697 C 6.591658592224121 12.71000003814697 4.729978561401367 10.84832000732422 4.729978561401367 8.560000419616699 C 4.729978561401367 6.271679878234863 6.591658592224121 4.409999847412109 8.879979133605957 4.409999847412109 C 11.16829872131348 4.409999847412109 13.02997970581055 6.271679878234863 13.02997970581055 8.560000419616699 C 13.02997970581055 10.84832000732422 11.16829872131348 12.71000003814697 8.879979133605957 12.71000003814697 M 8.869978904724121 0 C 8.879979133605957 0 8.879979133605957 0 8.879979133605957 0 C 12.41997909545898 0 16.44997978210449 2.079999923706055 17.49997901916504 6.699999809265137 C 18.66997909545898 11.85999965667725 15.50997924804688 16.21999931335449 12.64997863769531 18.96999931335449 C 11.59997940063477 19.98999977111816 10.2399787902832 20.5 8.879979133605957 20.5 C 7.519979476928711 20.5 6.159978866577148 19.98999977111816 5.099979400634766 18.96999931335449 C 2.239978790283203 16.21999931335449 -0.9200210571289062 11.85000038146973 0.2499790191650391 6.689999580383301 C 1.299978256225586 2.069999694824219 5.33997917175293 0 8.869978904724121 0 Z M 8.879979133605957 11.71000003814697 C 10.61997890472412 11.71000003814697 12.02997970581055 10.30000019073486 12.02997970581055 8.560000419616699 C 12.02997970581055 6.819999694824219 10.61997890472412 5.409999847412109 8.879979133605957 5.409999847412109 C 7.139979362487793 5.409999847412109 5.729978561401367 6.819999694824219 5.729978561401367 8.560000419616699 C 5.729978561401367 10.30000019073486 7.139979362487793 11.71000003814697 8.879979133605957 11.71000003814697 Z" stroke="none" fill="#da507a"/>
    </g>
    <path id="Vector-2" data-name="Vector" d="M0,0H24V24H0Z" transform="translate(428 188)" fill="none" opacity="0"/>
    <path id="Vector-3" data-name="Vector" d="M0,0H24V24H0Z" transform="translate(452 212) rotate(180)" fill="none" opacity="0"/>
  </g>
</svg>
