<svg xmlns="http://www.w3.org/2000/svg" width="21.824" height="21.824" viewBox="0 0 21.824 21.824"><defs><style>.a{fill:#00adc6;}</style></defs><path class="a" d="M16.539,5.627H5.286a.853.853,0,0,1,0-1.705H16.539a.853.853,0,0,1,0,1.705Zm.853,3.581a.852.852,0,0,0-.853-.853H5.286a.853.853,0,1,0,0,1.705H16.539A.852.852,0,0,0,17.391,9.207ZM11.765,13.64a.852.852,0,0,0-.853-.853H5.286a.853.853,0,0,0,0,1.705h5.627A.852.852,0,0,0,11.765,13.64Zm-.25,7.934,3.16-3.16h6.3a.852.852,0,0,0,.853-.853V.853A.852.852,0,0,0,20.972,0H.853A.852.852,0,0,0,0,.853V17.562a.852.852,0,0,0,.853.853h6.3l3.16,3.16A.852.852,0,0,0,11.515,21.575ZM1.705,1.705H20.119v15h-5.8a.852.852,0,0,0-.6.25l-2.807,2.807L8.1,16.959a.852.852,0,0,0-.6-.25h-5.8Z"/></svg>