<svg xmlns="http://www.w3.org/2000/svg" width="37" height="30" viewBox="0 0 37 30"><defs><style>.a{fill:#00adc6;}</style></defs><path class="a" d="M17.584,29.125V15.2l-3.915,3.739a.948.948,0,0,1-1.3,0,.847.847,0,0,1,0-1.237l5.478-5.232a.946.946,0,0,1,1.3,0L24.627,17.7a.847.847,0,0,1,0,1.237.947.947,0,0,1-1.3,0L19.417,15.2V29.125a.917.917,0,0,1-1.832,0Zm5.135-2.949a.876.876,0,1,1,0-1.75h5.649a7.365,7.365,0,0,0,6.8-7.176,7.28,7.28,0,0,0-6.078-7.1.893.893,0,0,1-.758-.779,8.649,8.649,0,0,0-8.8-7.62,8.912,8.912,0,0,0-8,4.84.934.934,0,0,1-1.148.448,4.02,4.02,0,0,0-1.346-.227,3.874,3.874,0,0,0-3.955,3.777,3.556,3.556,0,0,0,.238,1.294.858.858,0,0,1-.4,1.06,5.929,5.929,0,0,0-3.1,5.143,6.46,6.46,0,0,0,5.883,6.34h6.56a.876.876,0,1,1,0,1.75H7.689l-.051,0A7.97,7.97,0,0,1,2.2,23.565,8.085,8.085,0,0,1,0,18.086a7.635,7.635,0,0,1,3.4-6.278,5.329,5.329,0,0,1-.139-1.22A5.668,5.668,0,0,1,9.043,5.062a6.006,6.006,0,0,1,1.2.119A10.816,10.816,0,0,1,19.535,0a10.932,10.932,0,0,1,7.2,2.667,10.027,10.027,0,0,1,3.336,5.894A9.068,9.068,0,0,1,37,17.25a8.8,8.8,0,0,1-2.469,6.065,9.206,9.206,0,0,1-6.064,2.858l-.064,0Z"/></svg>